<?xml version="1.0" encoding="utf-8"?>
<!-- Generator: Adobe Illustrator 23.0.1, SVG Export Plug-In . SVG Version: 6.00 Build 0)  -->
<svg version="1.1" id="Layer_1" xmlns="http://www.w3.org/2000/svg" xmlns:xlink="http://www.w3.org/1999/xlink" x="0px" y="0px"
	 viewBox="0 0 720 720" style="enable-background:new 0 0 720 720;" xml:space="preserve">
<style type="text/css">
	.st0{fill:#EF4136;}
	.st1{fill:#00AEEF;}
	.st2{fill:#8DC63F;}
	.st3{fill:#DA1C5C;}
	.st4{fill:none;stroke:#00AEEF;stroke-width:9;stroke-miterlimit:10;}
</style>
<g>
	<path class="st0" d="M149.23,367.02c0.3,0.15,0.45,0.35,0.45,0.6c0,1.15-1.23,3-3.68,5.55c-2.2,2.3-5.4,3.45-9.6,3.45
		c-4.25,0-7.65-1.21-10.2-3.64c-2.55-2.42-3.83-5.64-3.83-9.64v-9.3c0-4,1.28-7.21,3.83-9.64c2.55-2.42,5.95-3.64,10.2-3.64
		c3.5,0,6.35,0.82,8.55,2.47c1.3,1,2.45,2.23,3.45,3.67c0.85,1.25,1.28,2.15,1.28,2.7c0,0.25-0.15,0.45-0.45,0.6l-6.53,3.23
		c-0.1,0.05-0.22,0.08-0.38,0.08c-0.25,0-0.6-0.43-1.05-1.29c-1.3-2.44-2.92-3.66-4.88-3.66c-1.55,0-2.84,0.53-3.86,1.59
		c-1.03,1.06-1.54,2.34-1.54,3.85v9.37c0,1.51,0.51,2.8,1.54,3.85c1.02,1.06,2.31,1.59,3.86,1.59c1.95,0,3.55-1.22,4.8-3.65
		c0.5-0.96,0.87-1.45,1.12-1.45c0.15,0,0.27,0.03,0.38,0.08L149.23,367.02z"/>
	<path class="st0" d="M169.47,340.77c3.43,0,6.29,0.85,8.58,2.55c1.24,0.9,2.31,2.08,3.21,3.52c0.79,1.2,1.19,2.08,1.19,2.62
		c0,0.25-0.15,0.45-0.45,0.6l-6.1,3c-0.1,0.05-0.22,0.08-0.37,0.08c-0.2,0-0.4-0.15-0.6-0.45c-1.19-1.75-1.91-2.75-2.16-3
		c-0.84-0.85-1.94-1.28-3.28-1.28h-2.16c-2.73,0-4.09,0.95-4.09,2.85c0,1.25,0.95,2.1,2.85,2.55c2.45,0.5,4.92,1,7.43,1.5
		c5.95,1.6,8.92,4.72,8.92,9.38c0,3.55-1.18,6.42-3.53,8.62s-5.47,3.3-9.38,3.3h-2.17c-4.15,0-7.4-1.22-9.75-3.67
		c-2.15-2.25-3.22-3.98-3.22-5.17c0-0.2,0.15-0.38,0.45-0.53l6.13-3c0.1-0.05,0.22-0.08,0.37-0.08c0.15,0,0.35,0.18,0.6,0.53
		c0.95,1.6,1.67,2.62,2.17,3.08c0.85,0.8,1.92,1.2,3.21,1.2h2.17c2.89,0,4.33-1.07,4.33-3.22c0-1.25-0.95-2.07-2.84-2.47
		c-2.49-0.5-4.98-0.98-7.47-1.43c-5.83-1.5-8.74-4.65-8.74-9.45c0-3.4,1.17-6.19,3.51-8.36c2.34-2.17,5.35-3.26,9.03-3.26H169.47z"
		/>
	<path class="st1" d="M216.95,360.12c0,0.5-0.25,0.75-0.74,0.75H198.5c-0.5,0-0.74,0.25-0.74,0.76v1.74c0,1.51,0.51,2.8,1.52,3.86
		c1.02,1.06,2.29,1.59,3.83,1.59c1.93,0,3.52-1.22,4.76-3.65c0.5-0.96,0.87-1.45,1.12-1.45c0.15,0,0.27,0.03,0.37,0.08l6.47,3.23
		c0.3,0.15,0.45,0.35,0.45,0.6c0,1.15-1.23,3-3.68,5.55c-2.2,2.3-5.4,3.45-9.6,3.45c-4.25,0-7.65-1.21-10.2-3.64
		c-2.55-2.42-3.82-5.64-3.82-9.64v-9.3c0-2.5,0.7-4.8,2.1-6.9c2.85-4.25,6.83-6.38,11.93-6.38s9.05,2.12,11.85,6.38
		c1.4,2.15,2.1,4.45,2.1,6.9V360.12z M207.43,353.67c0.5,0,0.75-0.25,0.75-0.76c0-1.07-0.54-2.05-1.61-2.97
		c-1.08-0.91-2.26-1.37-3.56-1.37c-1.4,0-2.62,0.46-3.68,1.37c-1.05,0.91-1.57,1.93-1.57,3.04c0,0.46,0.25,0.69,0.75,0.69H207.43z"
		/>
	<path class="st1" d="M251.45,375.12c0,0.5-0.25,0.75-0.75,0.75h-6.38c-0.4,0-0.66-0.25-0.79-0.75c-0.12-0.5-0.29-0.75-0.49-0.75
		c-0.1,0-0.8,0.25-2.1,0.75c-1.3,0.5-2.62,0.75-3.97,0.75c-3.9,0-7.12-1.24-9.68-3.71c-2.55-2.47-3.82-5.66-3.82-9.56v-7.88
		c0-3.75,1.24-6.89,3.71-9.41c2.47-2.52,5.51-3.79,9.11-3.79c1.3,0,2.61,0.25,3.94,0.75c1.32,0.5,2.01,0.75,2.06,0.75
		c0.35,0,0.53-0.27,0.53-0.83v-12.83c0-0.5,0.25-0.75,0.75-0.75h7.12c0.5,0,0.75,0.25,0.75,0.75V375.12z M242.83,362.63v-7.94
		c0-1.51-0.5-2.78-1.5-3.82c-1-1.03-2.28-1.55-3.82-1.55c-1.55,0-2.84,0.52-3.86,1.55c-1.03,1.03-1.54,2.31-1.54,3.82v7.94
		c0,1.56,0.51,2.86,1.54,3.89c1.02,1.03,2.31,1.55,3.86,1.55c1.55,0,2.82-0.52,3.82-1.55C242.33,365.49,242.83,364.19,242.83,362.63
		z"/>
	<path class="st2" d="M278.9,350.15c0,0.55-0.17,0.82-0.52,0.82c-0.25,0-0.88-0.25-1.9-0.75c-1.02-0.5-1.92-0.75-2.72-0.75
		c-1.44,0-2.66,0.51-3.65,1.54c-0.99,1.03-1.49,2.26-1.49,3.71v20.4c0,0.5-0.25,0.75-0.76,0.75h-7.11c-0.51,0-0.76-0.25-0.76-0.75
		v-32.85c0-0.5,0.25-0.75,0.75-0.75h6.38c0.5,0,0.75,0.22,0.75,0.67v1.05c0,0.4,0.23,0.65,0.68,0.75l0.45-0.22
		c1.95-1.5,3.85-2.25,5.7-2.25c2.8,0,4.2,0.45,4.2,1.35V350.15z"/>
	<path class="st2" d="M310.25,360.12c0,0.5-0.25,0.75-0.74,0.75h-17.71c-0.5,0-0.74,0.25-0.74,0.76v1.74c0,1.51,0.51,2.8,1.52,3.86
		c1.02,1.06,2.29,1.59,3.83,1.59c1.93,0,3.52-1.22,4.76-3.65c0.5-0.96,0.87-1.45,1.12-1.45c0.15,0,0.27,0.03,0.37,0.08l6.47,3.23
		c0.3,0.15,0.45,0.35,0.45,0.6c0,1.15-1.23,3-3.68,5.55c-2.2,2.3-5.4,3.45-9.6,3.45c-4.25,0-7.65-1.21-10.2-3.64
		c-2.55-2.42-3.82-5.64-3.82-9.64v-9.3c0-2.5,0.7-4.8,2.1-6.9c2.85-4.25,6.83-6.38,11.93-6.38s9.05,2.12,11.85,6.38
		c1.4,2.15,2.1,4.45,2.1,6.9V360.12z M300.72,353.67c0.5,0,0.75-0.25,0.75-0.76c0-1.07-0.54-2.05-1.61-2.97
		c-1.08-0.91-2.26-1.37-3.56-1.37c-1.4,0-2.62,0.46-3.68,1.37c-1.05,0.91-1.57,1.93-1.57,3.04c0,0.46,0.25,0.69,0.75,0.69H300.72z"
		/>
	<path class="st2" d="M330.57,340.77c3.43,0,6.29,0.85,8.58,2.55c1.24,0.9,2.31,2.08,3.21,3.52c0.79,1.2,1.19,2.08,1.19,2.62
		c0,0.25-0.15,0.45-0.45,0.6l-6.1,3c-0.1,0.05-0.22,0.08-0.37,0.08c-0.2,0-0.4-0.15-0.6-0.45c-1.19-1.75-1.91-2.75-2.16-3
		c-0.84-0.85-1.93-1.28-3.27-1.28h-2.16c-2.73,0-4.09,0.95-4.09,2.85c0,1.25,0.95,2.1,2.85,2.55c2.45,0.5,4.92,1,7.42,1.5
		c5.95,1.6,8.93,4.72,8.93,9.38c0,3.55-1.18,6.42-3.53,8.62c-2.35,2.2-5.47,3.3-9.38,3.3h-2.18c-4.15,0-7.4-1.22-9.75-3.67
		c-2.15-2.25-3.22-3.98-3.22-5.17c0-0.2,0.15-0.38,0.45-0.53l6.12-3c0.1-0.05,0.22-0.08,0.38-0.08c0.15,0,0.35,0.18,0.6,0.53
		c0.95,1.6,1.67,2.62,2.17,3.08c0.85,0.8,1.92,1.2,3.21,1.2h2.17c2.89,0,4.33-1.07,4.33-3.22c0-1.25-0.95-2.07-2.84-2.47
		c-2.49-0.5-4.98-0.98-7.47-1.43c-5.83-1.5-8.74-4.65-8.74-9.45c0-3.4,1.17-6.19,3.51-8.36c2.34-2.17,5.35-3.26,9.03-3.26H330.57z"
		/>
	<path class="st2" d="M378.05,360.12c0,0.5-0.25,0.75-0.74,0.75h-17.71c-0.5,0-0.74,0.25-0.74,0.76v1.74c0,1.51,0.51,2.8,1.53,3.86
		c1.02,1.06,2.29,1.59,3.83,1.59c1.93,0,3.52-1.22,4.76-3.65c0.49-0.96,0.87-1.45,1.12-1.45c0.15,0,0.27,0.03,0.37,0.08l6.47,3.23
		c0.3,0.15,0.45,0.35,0.45,0.6c0,1.15-1.23,3-3.68,5.55c-2.2,2.3-5.4,3.45-9.6,3.45c-4.25,0-7.65-1.21-10.2-3.64
		c-2.55-2.42-3.83-5.64-3.83-9.64v-9.3c0-2.5,0.7-4.8,2.1-6.9c2.85-4.25,6.82-6.38,11.92-6.38s9.05,2.12,11.85,6.38
		c1.4,2.15,2.1,4.45,2.1,6.9V360.12z M368.53,353.67c0.5,0,0.75-0.25,0.75-0.76c0-1.07-0.54-2.05-1.61-2.97
		c-1.08-0.91-2.26-1.37-3.56-1.37c-1.4,0-2.62,0.46-3.67,1.37c-1.05,0.91-1.58,1.93-1.58,3.04c0,0.46,0.25,0.69,0.75,0.69H368.53z"
		/>
	<path class="st2" d="M410.75,375.12c0,0.5-0.25,0.75-0.75,0.75h-6.38c-0.4,0-0.66-0.24-0.79-0.71c-0.12-0.47-0.29-0.71-0.49-0.71
		c-0.1,0-0.74,0.24-1.91,0.71c-1.18,0.48-2.29,0.71-3.34,0.71h-2.85c-3.1,0-5.64-0.95-7.61-2.85s-2.96-4.3-2.96-7.2v-0.38
		c0-2.95,0.98-5.36,2.95-7.24s4.49-2.81,7.58-2.81h7.17c0.5,0,0.75-0.23,0.75-0.68v-0.15l-0.07-0.91c-0.3-3.39-2.08-5.08-5.36-5.08
		c-1.54,0-2.9,0.76-4.09,2.29c-0.2,0.25-0.57,0.84-1.12,1.75c-0.3,0.51-0.57,0.76-0.82,0.76c-0.1,0-0.25-0.05-0.45-0.15l-6.1-3.22
		c-0.3-0.15-0.45-0.32-0.45-0.53c0-1.35,1.2-3.17,3.59-5.47c2.19-2.15,5.36-3.22,9.5-3.22c4.24,0,7.63,1.2,10.17,3.6
		s3.81,5.6,3.81,9.6V375.12z M402.12,362.6h-7.83c-1.33,0-1.99,0.71-1.99,2.13v1.14c0,1.47,0.66,2.21,1.99,2.21h2.81
		c2.31,0,3.96-1.42,4.95-4.26C402.05,363.66,402.08,363.26,402.12,362.6z"/>
	<path class="st2" d="M438.2,350.15c0,0.55-0.17,0.82-0.52,0.82c-0.25,0-0.88-0.25-1.9-0.75c-1.02-0.5-1.92-0.75-2.72-0.75
		c-1.44,0-2.66,0.51-3.65,1.54c-0.99,1.03-1.49,2.26-1.49,3.71v20.4c0,0.5-0.25,0.75-0.76,0.75h-7.11c-0.51,0-0.76-0.25-0.76-0.75
		v-32.85c0-0.5,0.25-0.75,0.75-0.75h6.38c0.5,0,0.75,0.22,0.75,0.67v1.05c0,0.4,0.23,0.65,0.68,0.75l0.45-0.22
		c1.95-1.5,3.85-2.25,5.7-2.25c2.8,0,4.2,0.45,4.2,1.35V350.15z"/>
	<path class="st2" d="M468.42,367.02c0.3,0.15,0.45,0.35,0.45,0.6c0,1.15-1.23,3-3.68,5.55c-2.2,2.3-5.4,3.45-9.6,3.45
		c-4.25,0-7.65-1.21-10.2-3.64c-2.55-2.42-3.82-5.64-3.82-9.64v-9.3c0-4,1.28-7.21,3.82-9.64c2.55-2.42,5.95-3.64,10.2-3.64
		c3.5,0,6.35,0.82,8.55,2.47c1.3,1,2.45,2.23,3.45,3.67c0.85,1.25,1.28,2.15,1.28,2.7c0,0.25-0.15,0.45-0.45,0.6l-6.53,3.23
		c-0.1,0.05-0.22,0.08-0.38,0.08c-0.25,0-0.6-0.43-1.05-1.29c-1.3-2.44-2.93-3.66-4.88-3.66c-1.55,0-2.84,0.53-3.86,1.59
		s-1.54,2.34-1.54,3.85v9.37c0,1.51,0.51,2.8,1.54,3.85c1.03,1.06,2.31,1.59,3.86,1.59c1.95,0,3.55-1.22,4.8-3.65
		c0.5-0.96,0.88-1.45,1.12-1.45c0.15,0,0.28,0.03,0.38,0.08L468.42,367.02z"/>
	<path class="st2" d="M502.47,375.12c0,0.5-0.25,0.75-0.75,0.75h-7.12c-0.5,0-0.75-0.25-0.75-0.75v-20.46c0-1.5-0.5-2.77-1.49-3.8
		c-0.99-1.03-2.26-1.54-3.8-1.54c-1.54,0-2.82,0.51-3.84,1.54c-1.02,1.03-1.53,2.29-1.53,3.8v20.46c0,0.5-0.25,0.75-0.76,0.75h-7.11
		c-0.51,0-0.76-0.25-0.76-0.75v-45.75c0-0.5,0.25-0.75,0.76-0.75h7.11c0.5,0,0.76,0.25,0.76,0.75v12.83c0,0.55,0.17,0.83,0.52,0.83
		c0.1,0,0.81-0.25,2.13-0.75c1.32-0.5,2.6-0.75,3.85-0.75c3.54,0,6.55,1.25,9.04,3.75s3.74,5.65,3.74,9.45V375.12z"/>
	<path class="st3" d="M519.35,371.6c0,1.35-0.5,2.53-1.5,3.53s-2.18,1.5-3.53,1.5c-1.4,0-2.59-0.5-3.56-1.5s-1.46-2.17-1.46-3.53
		c0-1.4,0.49-2.59,1.46-3.56c0.97-0.97,2.16-1.46,3.56-1.46c1.35,0,2.53,0.5,3.53,1.5C518.85,369.07,519.35,370.25,519.35,371.6z"/>
	<path class="st3" d="M552.5,363.35c0,4-1.28,7.21-3.82,9.64c-2.55,2.43-5.93,3.64-10.12,3.64c-4.25,0-7.65-1.21-10.2-3.64
		c-2.55-2.42-3.82-5.64-3.82-9.64v-9.3c0-4,1.28-7.21,3.82-9.64c2.55-2.42,5.95-3.64,10.2-3.64c4.2,0,7.57,1.21,10.12,3.64
		c2.55,2.43,3.82,5.64,3.82,9.64V363.35z M543.87,363.38v-9.37c0-1.51-0.51-2.79-1.54-3.85c-1.03-1.06-2.29-1.59-3.79-1.59
		c-1.55,0-2.84,0.53-3.86,1.59s-1.54,2.34-1.54,3.85v9.37c0,1.51,0.51,2.8,1.54,3.85c1.03,1.06,2.31,1.59,3.86,1.59
		c1.5,0,2.76-0.53,3.79-1.59C543.36,366.18,543.87,364.89,543.87,363.38z"/>
	<path class="st3" d="M578.97,350.15c0,0.55-0.17,0.82-0.52,0.82c-0.25,0-0.88-0.25-1.9-0.75c-1.02-0.5-1.92-0.75-2.72-0.75
		c-1.44,0-2.66,0.51-3.65,1.54c-0.99,1.03-1.49,2.26-1.49,3.71v20.4c0,0.5-0.25,0.75-0.76,0.75h-7.11c-0.51,0-0.76-0.25-0.76-0.75
		v-32.85c0-0.5,0.25-0.75,0.75-0.75h6.38c0.5,0,0.75,0.22,0.75,0.67v1.05c0,0.4,0.23,0.65,0.68,0.75l0.45-0.22
		c1.95-1.5,3.85-2.25,5.7-2.25c2.8,0,4.2,0.45,4.2,1.35V350.15z"/>
	<path class="st3" d="M613.54,382.73c0,2.89-1.01,5.28-3.04,7.17c-2.03,1.89-4.61,2.84-7.76,2.84h-9.6c-3.2,0-5.8-0.95-7.8-2.85
		c-2-1.9-3-4.3-3-7.2v-1.42c0-1.95,0.92-4,2.78-6.15c0.85-1,1.28-1.55,1.28-1.65c-0.5-1.6-0.75-2.8-0.75-3.6
		c0-0.85,0.17-1.75,0.52-2.7c0.35-0.95,0.53-1.45,0.53-1.5c0-0.2-0.07-0.38-0.22-0.52c-1.6-2.2-2.5-3.5-2.7-3.9
		c-0.95-1.75-1.43-3.7-1.43-5.85v-0.68c0-3.75,1.3-6.89,3.9-9.41c2.6-2.52,5.8-3.79,9.6-3.79c1.3,0,2.62,0.25,3.97,0.75
		s2.07,0.75,2.18,0.75c0.15,0,0.29-0.25,0.41-0.75s0.39-0.75,0.79-0.75h6.38c0.5,0,0.75,0.25,0.75,0.75v13.09
		c0,3.99-1.35,7.19-4.05,9.61c-2.7,2.42-6.33,3.63-10.88,3.63h-1.12c-0.35,0.37-0.53,0.79-0.53,1.27c0,0.42,0.2,0.9,0.6,1.43h8.4
		c3.2,0,5.8,0.95,7.8,2.84c2,1.89,3,4.28,3,7.17V382.73z M601.7,355.36v-0.68c0-1.51-0.5-2.78-1.5-3.81s-2.28-1.55-3.82-1.55
		c-1.55,0-2.84,0.52-3.86,1.55s-1.54,2.3-1.54,3.81v0.68c0,1.51,0.51,2.79,1.54,3.85c1.03,1.06,2.31,1.58,3.86,1.58
		c1.5,0,2.76-0.53,3.79-1.58C601.18,358.15,601.7,356.87,601.7,355.36z M604.92,382.74v-1.44c0-1.47-0.72-2.2-2.17-2.2h-9.6
		c-1.45,0-2.18,0.73-2.18,2.2v1.44c0,1.47,0.72,2.2,2.18,2.2h9.6C604.2,384.95,604.92,384.21,604.92,382.74z"/>
</g>
<path class="st4" d="M621.31,404.13H115.86c-6.66,0-12.06-5.4-12.06-12.06v-64.23c0-6.66,5.4-12.06,12.06-12.06h517.51v76.29
	C633.37,398.73,627.97,404.13,621.31,404.13z"/>
</svg>
